<?xml version="1.0" standalone="no"?>
<!DOCTYPE svg PUBLIC "-//W3C//DTD SVG 20010904//EN"
 "http://www.w3.org/TR/2001/REC-SVG-20010904/DTD/svg10.dtd">
<svg version="1.0" xmlns="http://www.w3.org/2000/svg"
 width="300.000000pt" height="300.000000pt" viewBox="0 0 300.000000 300.000000"
 preserveAspectRatio="xMidYMid meet">
<metadata>
Created by potrace 1.11, written by Peter Selinger 2001-2013
</metadata>
<g transform="translate(0.000000,300.000000) scale(0.100000,-0.100000)"
fill="#000000" stroke="none">
<path d="M0 1500 l0 -1500 1500 0 1500 0 0 1500 0 1500 -1500 0 -1500 0 0
-1500z m1734 1210 l380 0 47 -49 c36 -38 49 -60 58 -100 14 -64 14 -181 1
-215 -9 -24 -15 -26 -64 -26 -76 0 -86 16 -86 137 0 85 -2 93 -22 105 -18 10
-192 13 -835 13 -767 0 -813 -1 -830 -18 -17 -17 -18 -61 -18 -778 0 -886 -16
-789 131 -789 51 0 104 -4 118 -10 24 -9 26 -14 26 -68 l0 -59 -92 -7 c-124
-8 -207 5 -253 40 -67 51 -68 58 -76 369 -9 368 -9 1089 0 1237 8 130 11 137
96 201 l40 30 500 -7 c275 -3 671 -6 879 -6z m943 -539 c21 -15 56 -48 76 -71
l37 -44 0 -792 0 -792 -33 -44 c-18 -24 -54 -58 -81 -76 l-48 -32 -852 0 -851
0 -53 35 c-95 64 -87 -15 -90 870 -2 429 0 799 3 823 7 44 47 101 89 125 32
17 281 23 1062 25 l701 2 40 -29z"/>
<path d="M1013 2051 c-34 -3 -68 -12 -75 -19 -10 -10 -14 -161 -16 -745 -3
-751 -1 -795 36 -813 20 -11 1488 -18 1580 -9 105 11 97 -56 97 790 0 401 -3
742 -7 756 -4 15 -16 31 -25 35 -21 10 -1497 14 -1590 5z"/>
</g>
</svg>
